<?xml version="1.0" standalone="no"?>
<!DOCTYPE svg PUBLIC "-//W3C//DTD SVG 20010904//EN"
 "http://www.w3.org/TR/2001/REC-SVG-20010904/DTD/svg10.dtd">
<svg version="1.0" xmlns="http://www.w3.org/2000/svg"
 width="307.000000pt" height="307.000000pt" viewBox="0 0 307.000000 307.000000"
 preserveAspectRatio="xMidYMid meet">

<g transform="translate(0.000000,307.000000) scale(0.100000,-0.100000)"
fill="#000000" stroke="none">
<path d="M223 1894 c-17 -7 -18 -439 -2 -515 9 -41 22 -62 63 -105 65 -67 130
-88 250 -82 118 7 204 56 245 141 20 40 21 61 21 300 l0 257 -65 0 -65 0 0
-190 c0 -104 -3 -190 -7 -190 -5 1 -42 47 -83 103 -128 174 -189 246 -220 262
-33 17 -116 28 -137 19z m251 -373 c63 -84 113 -158 110 -165 -14 -37 -107
-50 -162 -22 -65 34 -72 54 -72 209 0 77 2 138 5 135 3 -3 57 -73 119 -157z"/>
<path d="M950 1590 l0 -220 45 0 44 0 3 133 3 132 78 -133 78 -133 47 3 47 3
0 215 0 215 -41 3 -41 3 -6 -45 c-4 -25 -4 -87 -1 -138 6 -111 7 -112 -93 63
l-68 119 -47 0 -48 0 0 -220z"/>
<path d="M1411 1597 c-39 -116 -71 -216 -71 -220 0 -4 21 -7 47 -5 45 3 47 4
57 43 l12 40 73 0 74 0 11 -40 c11 -39 13 -40 59 -43 26 -2 47 1 47 6 0 5 -31
103 -70 218 -38 115 -70 210 -70 212 0 1 -22 2 -49 2 l-49 0 -71 -213z m142
26 c9 -32 19 -66 22 -75 6 -16 1 -18 -39 -18 -35 0 -46 4 -46 15 0 23 34 135
41 135 3 0 13 -26 22 -57z"/>
<path d="M1765 1788 c-3 -13 -4 -111 -2 -218 l2 -195 48 -3 47 -3 0 220 0 221
-45 0 c-38 0 -45 -3 -50 -22z"/>
<path d="M2050 1650 c0 -147 -2 -162 -20 -180 -22 -22 -46 -25 -84 -10 -28 10
-33 6 -46 -41 -8 -28 -7 -31 25 -45 77 -32 166 -6 197 56 15 29 18 63 18 208
l0 172 -45 0 -45 0 0 -160z"/>
<path d="M2194 1796 c-3 -8 -4 -84 -2 -168 3 -167 12 -198 71 -241 43 -33 140
-35 196 -5 73 38 81 64 81 261 l0 168 -46 -3 -46 -3 -2 -156 c-1 -139 -3 -159
-20 -178 -26 -28 -86 -29 -112 0 -17 18 -19 38 -19 177 l0 157 -48 3 c-35 2
-49 -1 -53 -12z"/>
<path d="M2590 1590 l0 -220 50 0 50 0 0 73 0 73 57 2 c103 4 158 61 150 155
-9 100 -65 137 -209 137 l-98 0 0 -220z m190 120 c45 -45 11 -120 -55 -120
l-35 0 0 70 0 70 35 0 c22 0 43 -8 55 -20z"/>
</g>
</svg>
